<?xml version="1.0" encoding="utf-8"?>
<!-- Generator: Adobe Illustrator 15.1.0, SVG Export Plug-In . SVG Version: 6.00 Build 0)  -->
<!DOCTYPE svg PUBLIC "-//W3C//DTD SVG 1.1//EN" "http://www.w3.org/Graphics/SVG/1.1/DTD/svg11.dtd">
<svg version="1.1"
	 id="svg3767" xmlns:dc="http://purl.org/dc/elements/1.1/" xmlns:cc="http://creativecommons.org/ns#" xmlns:rdf="http://www.w3.org/1999/02/22-rdf-syntax-ns#" xmlns:svg="http://www.w3.org/2000/svg" xmlns:sodipodi="http://sodipodi.sourceforge.net/DTD/sodipodi-0.dtd" xmlns:inkscape="http://www.inkscape.org/namespaces/inkscape" sodipodi:docname="logoT.svg" inkscape:version="0.92.4 (33fec40, 2019-01-16)" inkscape:export-ydpi="96" inkscape:export-xdpi="96" inkscape:export-filename="/home/domi/Documents/BP/pqsfinder-frontend/public/images/logoT.png"
	 xmlns="http://www.w3.org/2000/svg" xmlns:xlink="http://www.w3.org/1999/xlink" x="0px" y="0px" width="332px" height="445px"
	 viewBox="113 0 332 445" enable-background="new 113 0 332 445" xml:space="preserve">
<defs>
	
	
		<inkscape:path-effect  weight="33.333333" steps="2" effect="bspline" id="path-effect4626" apply_no_weight="true" helper_size="0" is_visible="true" only_selected="false" apply_with_weight="true">
		</inkscape:path-effect>
	
		<inkscape:path-effect  weight="33.333333" steps="2" effect="bspline" id="path-effect4622" apply_no_weight="true" helper_size="0" is_visible="true" only_selected="false" apply_with_weight="true">
		</inkscape:path-effect>
	
		<inkscape:path-effect  weight="33.333333" steps="2" effect="bspline" id="path-effect4618" apply_no_weight="true" helper_size="0" is_visible="true" only_selected="false" apply_with_weight="true">
		</inkscape:path-effect>
	
		<inkscape:path-effect  weight="33.333333" steps="2" effect="bspline" id="path-effect4614" apply_no_weight="true" helper_size="0" is_visible="true" only_selected="false" apply_with_weight="true">
		</inkscape:path-effect>
	
		<inkscape:path-effect  weight="33.333333" steps="2" effect="bspline" id="path-effect4610" apply_no_weight="true" helper_size="0" is_visible="true" only_selected="false" apply_with_weight="true">
		</inkscape:path-effect>
	
		<inkscape:path-effect  weight="33.333333" steps="2" effect="bspline" id="path-effect4606" apply_no_weight="true" helper_size="0" is_visible="true" only_selected="false" apply_with_weight="true">
		</inkscape:path-effect>
	
		<inkscape:path-effect  weight="33.333333" steps="2" effect="bspline" id="path-effect4602" apply_no_weight="true" helper_size="0" is_visible="true" only_selected="false" apply_with_weight="true">
		</inkscape:path-effect>
</defs>
<sodipodi:namedview  id="namedview3769" inkscape:cy="221.38537" inkscape:cx="120.98447" inkscape:zoom="1.8561798" showgrid="false" guidetolerance="10" gridtolerance="10" objecttolerance="10" borderopacity="1" bordercolor="#666666" pagecolor="#ffffff" inkscape:current-layer="svg3767" inkscape:window-y="27" inkscape:window-x="0" inkscape:window-height="1016" inkscape:window-width="1920" inkscape:pageshadow="2" inkscape:pageopacity="0" inkscape:window-maximized="1">
	</sodipodi:namedview>
<path id="path4612" inkscape:original-d="m 121.48608,408.16359 c 0.27037,-96.90702 0.53974,-193.81305 0.80811,-290.71807 0.40505,-2.38042 0.80911,-4.75988 1.21217,-7.13831 2.33554,-5.56799 4.67009,-11.134984 7.00363,-16.700975 4.04156,-5.11904 8.08211,-10.237076 12.12167,-15.354117 7.04953,-3.233446 14.09805,-6.46589 21.14558,-9.697336 6.64547,-0.898901 13.13819,-1.776296 19.93341,-2.693705 8.22075,1.698056 15.95386,3.296518 24.10866,4.983354 5.65083,4.327497 11.13498,8.529065 16.70097,12.795097 2.96408,4.353823 5.92702,8.708452 8.88923,13.064468 2.51523,6.060104 5.02904,12.120174 7.54236,18.182504 -0.0439,8.21548 -0.0888,16.4306 -0.13468,24.6474 0.18061,72.96364 0.35905,145.45607 0.53874,218.86349 -0.99281,4.92288 -1.97416,9.78502 -2.96307,14.6807 -2.46879,5.61215 -4.93693,11.22156 -7.40769,16.83565 -5.02833,3.50157 -10.05551,7.00264 -15.08475,10.50545 -4.93745,-3.86197 -9.87591,-7.72296 -14.81537,-11.58294 -2.24375,-4.31092 -4.48851,-8.62084 -6.73427,-12.92977 -1.03158,-6.60058 -2.06417,-13.20015 -3.09775,-19.79873 0.001,-12.3906 0.001,-24.78309 0,-37.17313" sodipodi:nodetypes="cccccccccccccccccccc" inkscape:path-effect="#path-effect4614" inkscape:export-ydpi="96" inkscape:export-xdpi="96" inkscape:connector-curvature="0" fill="none" stroke="#FFFFFF" stroke-width="10.9" d="
	M121.486,408.702c0.27-96.907,0.539-193.813,0.876-243.456c0.336-49.643,0.74-52.022,2.11-55.996
	c1.369-3.973,3.703-9.54,6.892-14.883c3.188-5.342,7.228-10.46,12.772-14.635c5.545-4.175,12.594-7.408,19.439-9.472
	c6.847-2.065,13.34-2.942,20.848-2.552c7.508,0.391,15.24,1.989,22.144,4.996c6.902,3.007,12.387,7.209,16.651,11.519
	s7.228,8.665,9.967,13.873c2.738,5.208,5.252,11.268,6.487,18.406c1.234,7.139,1.189,15.354,1.257,55.944
	c0.067,40.59,0.246,113.083-0.16,152.247c-0.407,39.166-1.389,44.027-3.117,49.281s-4.196,10.863-7.946,15.422
	c-3.749,4.558-8.776,8.059-13.76,7.88c-4.984-0.179-9.923-4.04-13.514-8.126c-3.592-4.086-5.837-8.396-7.476-13.851
	s-2.671-12.055-3.188-21.55c-0.517-9.494-0.517-21.887-0.517-34.277"/>
<path id="path4616" inkscape:original-d="m 191.15779,284.33009 c 0.0327,-17.37859 0.0645,-34.75616 0.0952,-52.13275" sodipodi:nodetypes="cc" inkscape:path-effect="#path-effect4618" inkscape:export-ydpi="96" inkscape:export-xdpi="96" inkscape:connector-curvature="0" fill="none" stroke="#FFFFFF" stroke-width="10.9" d="
	M191.158,284.33c0.031-17.379,0.063-34.756,0.095-52.133"/>
<path id="path4620" inkscape:original-d="m 191.25303,197.17918 c -0.21033,-16.83985 -0.42165,-33.67869 -0.63398,-50.51654" sodipodi:nodetypes="cc" inkscape:path-effect="#path-effect4622" inkscape:export-ydpi="96" inkscape:export-xdpi="96" inkscape:connector-curvature="0" fill="none" stroke="#FFFFFF" stroke-width="10.9" d="
	M191.253,197.179c-0.211-16.84-0.422-33.679-0.634-50.517"/>
<path id="path4624" inkscape:original-d="m 191.5224,111.38469 c 0,0 -0.1157,-3.05342 -0.17505,-4.57862 -0.23554,-6.15966 -0.65321,-17.088339 -0.90243,-23.570597 2.48309,-6.928625 6.01694,-16.791761 9.0239,-25.186139 5.61289,-5.208828 11.22477,-10.416657 16.83566,-15.623486 6.15162,-2.964075 12.30225,-5.92715 18.45187,-8.889226 5.4782,-0.674426 10.95541,-1.347852 16.43161,-2.020278 7.72295,1.300957 15.33308,2.58406 23.16586,3.905872 5.92188,4.325796 11.67372,8.529064 17.50908,12.795097 3.86197,4.712983 7.7229,9.426902 11.58293,14.141949 2.29068,6.86804 4.5801,13.736301 6.86894,20.60684 -0.17859,8.97879 -0.35816,17.957028 -0.53874,26.937048 0.1357,86.65605 0.27037,173.29381 0.40405,259.94221" sodipodi:nodetypes="ccccccccccccc" inkscape:path-effect="#path-effect4626" inkscape:export-ydpi="96" inkscape:export-xdpi="96" inkscape:connector-curvature="0" fill="none" stroke="#FFFFFF" stroke-width="10.9" d="
	M191.522,111.385c-0.059-1.526-0.116-3.054-0.264-6.896s-0.565-14.771,0.552-21.477s4.651-16.569,8.961-23.37
	c4.311-6.802,9.923-12.009,15.804-16.095c5.882-4.085,12.032-7.048,17.846-8.866c5.814-1.818,11.291-2.492,17.891-2.177
	s14.21,1.598,21.087,4.421s12.629,7.027,17.478,11.517c4.848,4.489,8.709,9.203,11.784,14.995c3.075,5.791,5.365,12.659,6.42,20.584
	c1.056,7.924,0.876,16.902,0.854,64.721c-0.022,47.818,0.112,134.456,0.247,221.104"/>
<path id="path4628" inkscape:export-ydpi="96" inkscape:export-xdpi="96" inkscape:connector-curvature="0" fill="none" stroke="#FFFFFF" stroke-width="10.9" d="
	M191.522,111.385l-68.15,34.075l117.445,1.078l68.959-33.941L191.522,111.385z"/>
<path id="path4628-3" inkscape:export-ydpi="96" inkscape:export-xdpi="96" inkscape:connector-curvature="0" fill="none" stroke="#FFFFFF" stroke-width="10.9" d="
	M191.158,284.33l-68.151,34.075l117.446,1.077l68.959-33.94L191.158,284.33z"/>
<path id="path4628-6" inkscape:export-ydpi="96" inkscape:export-xdpi="96" inkscape:connector-curvature="0" fill="none" stroke="#FFFFFF" stroke-width="10.9" d="
	M191.253,197.179l-68.15,34.075l117.445,1.078l68.959-33.94L191.253,197.179z"/>
<path id="path4680" sodipodi:nodetypes="cccc" inkscape:export-ydpi="96" inkscape:export-xdpi="96" inkscape:connector-curvature="0" fill="#FFFFFF" d="
	M184.677,114.213l-0.024-4.714l4.849,1.592L184.677,114.213z"/>
<path id="path4680-7" sodipodi:nodetypes="cccc" inkscape:export-ydpi="96" inkscape:export-xdpi="96" inkscape:connector-curvature="0" fill="#FFFFFF" d="
	M185.702,198.349l-0.052-9.428l11.179,3.723L185.702,198.349z"/>
<path id="path4680-5" sodipodi:nodetypes="cccc" inkscape:export-ydpi="96" inkscape:export-xdpi="96" inkscape:connector-curvature="0" fill="#FFFFFF" d="
	M185.702,285.369l-0.052-9.428l11.179,2.51L185.702,285.369z"/>
</svg>
