<?xml version="1.0" encoding="utf-8"?>
<!-- Generator: Adobe Illustrator 15.1.0, SVG Export Plug-In . SVG Version: 6.00 Build 0)  -->
<!DOCTYPE svg PUBLIC "-//W3C//DTD SVG 1.1//EN" "http://www.w3.org/Graphics/SVG/1.1/DTD/svg11.dtd">
<svg version="1.1" id="Vrstva_1" xmlns="http://www.w3.org/2000/svg" xmlns:xlink="http://www.w3.org/1999/xlink" x="0px" y="0px"
	 width="564.5px" height="131.5px" viewBox="0 0 564.5 131.5" enable-background="new 0 0 564.5 131.5" xml:space="preserve">
<g>
	<g>
		<path d="M236.733,6.879V5.703l4.245-0.007v3.719c-0.652,0.52-1.324,0.91-2.017,1.172s-1.404,0.393-2.133,0.393
			c-0.984,0-1.879-0.211-2.683-0.632s-1.412-1.031-1.822-1.829s-0.615-1.688-0.615-2.673c0-0.975,0.204-1.886,0.612-2.731
			s0.995-1.473,1.76-1.883s1.647-0.615,2.646-0.615c0.725,0,1.38,0.117,1.965,0.352s1.045,0.562,1.377,0.981
			s0.585,0.966,0.759,1.641l-1.196,0.328c-0.15-0.51-0.337-0.912-0.561-1.203s-0.542-0.525-0.957-0.701s-0.875-0.263-1.381-0.263
			c-0.606,0-1.13,0.092-1.572,0.277s-0.799,0.427-1.07,0.728s-0.482,0.631-0.632,0.991c-0.255,0.62-0.383,1.292-0.383,2.017
			c0,0.893,0.154,1.641,0.461,2.242s0.755,1.048,1.343,1.34s1.212,0.438,1.873,0.438c0.574,0,1.135-0.11,1.682-0.332
			s0.961-0.457,1.244-0.708V6.879H236.733z"/>
		<path d="M242.297,7.802V6.564h3.78v1.237H242.297z"/>
		<path d="M247.424,10.81V3.55h1.107V4.65c0.283-0.515,0.543-0.854,0.783-1.019s0.502-0.246,0.79-0.246
			c0.415,0,0.836,0.132,1.265,0.396l-0.424,1.142c-0.301-0.178-0.602-0.267-0.902-0.267c-0.269,0-0.51,0.081-0.725,0.243
			s-0.367,0.386-0.458,0.673c-0.137,0.438-0.205,0.916-0.205,1.436v3.801H247.424z"/>
		<path d="M256.858,10.81V9.743c-0.565,0.82-1.333,1.23-2.304,1.23c-0.428,0-0.828-0.082-1.2-0.246s-0.647-0.37-0.827-0.619
			s-0.307-0.553-0.379-0.913c-0.05-0.242-0.075-0.625-0.075-1.148V3.55h1.23v4.026c0,0.643,0.025,1.076,0.075,1.299
			c0.078,0.324,0.242,0.578,0.492,0.762s0.561,0.277,0.93,0.277s0.715-0.095,1.039-0.284s0.553-0.447,0.687-0.772
			s0.202-0.799,0.202-1.418V3.55h1.23v7.26H256.858z"/>
		<path d="M259.886,10.81V3.55h1.107v1.032c0.533-0.797,1.303-1.196,2.311-1.196c0.438,0,0.84,0.079,1.207,0.236
			s0.642,0.363,0.824,0.619s0.31,0.558,0.383,0.909c0.045,0.228,0.068,0.626,0.068,1.196v4.464h-1.23V6.394
			c0-0.501-0.048-0.876-0.144-1.125s-0.266-0.447-0.509-0.595s-0.53-0.222-0.858-0.222c-0.524,0-0.977,0.167-1.357,0.499
			s-0.571,0.964-0.571,1.894v3.965H259.886z"/>
		<path d="M271.535,10.81V0.788h1.23V10.81H271.535z"/>
		<path d="M279.642,8.472l1.271,0.157c-0.201,0.743-0.572,1.319-1.114,1.729s-1.235,0.615-2.078,0.615
			c-1.062,0-1.904-0.327-2.526-0.981s-0.933-1.571-0.933-2.751c0-1.221,0.314-2.169,0.943-2.844s1.445-1.012,2.447-1.012
			c0.971,0,1.764,0.331,2.379,0.991s0.923,1.59,0.923,2.789c0,0.073-0.002,0.182-0.007,0.328h-5.414
			c0.045,0.797,0.271,1.408,0.677,1.832s0.912,0.636,1.518,0.636c0.451,0,0.836-0.119,1.155-0.355S279.455,8.991,279.642,8.472z
			 M275.602,6.482h4.054c-0.055-0.611-0.209-1.069-0.465-1.374c-0.392-0.474-0.9-0.711-1.524-0.711c-0.565,0-1.04,0.189-1.425,0.567
			S275.643,5.849,275.602,6.482z"/>
		<path d="M282.458,10.81V3.55h1.107v1.032c0.533-0.797,1.303-1.196,2.311-1.196c0.438,0,0.84,0.079,1.206,0.236
			c0.367,0.157,0.643,0.363,0.824,0.619c0.184,0.255,0.311,0.558,0.383,0.909c0.047,0.228,0.068,0.626,0.068,1.196v4.464h-1.23
			V6.394c0-0.501-0.047-0.876-0.143-1.125s-0.266-0.447-0.51-0.595c-0.244-0.148-0.53-0.222-0.858-0.222
			c-0.524,0-0.977,0.167-1.357,0.499s-0.571,0.964-0.571,1.894v3.965H282.458z"/>
		<path d="M290.02,11.411l1.195,0.178c0.051,0.369,0.189,0.638,0.418,0.807c0.305,0.228,0.723,0.342,1.25,0.342
			c0.57,0,1.01-0.114,1.32-0.342c0.309-0.228,0.52-0.547,0.629-0.957c0.063-0.25,0.094-0.777,0.088-1.579
			c-0.537,0.633-1.207,0.95-2.01,0.95c-0.998,0-1.77-0.36-2.316-1.08s-0.82-1.583-0.82-2.591c0-0.693,0.125-1.332,0.375-1.917
			c0.252-0.585,0.615-1.038,1.09-1.357c0.477-0.319,1.037-0.479,1.68-0.479c0.855,0,1.563,0.346,2.119,1.039V3.55h1.135v6.275
			c0,1.13-0.115,1.931-0.346,2.403s-0.596,0.844-1.094,1.118c-0.5,0.273-1.113,0.41-1.842,0.41c-0.867,0-1.566-0.195-2.1-0.584
			S290,12.195,290.02,11.411z M291.037,7.05c0,0.953,0.189,1.647,0.568,2.085c0.377,0.438,0.852,0.656,1.422,0.656
			c0.564,0,1.039-0.218,1.422-0.653s0.574-1.118,0.574-2.047c0-0.889-0.197-1.559-0.592-2.01s-0.869-0.677-1.426-0.677
			c-0.547,0-1.012,0.222-1.395,0.667S291.037,6.175,291.037,7.05z"/>
		<path d="M300.717,9.709l0.178,1.087c-0.346,0.073-0.656,0.109-0.93,0.109c-0.445,0-0.793-0.071-1.039-0.212
			s-0.418-0.327-0.52-0.557c-0.1-0.23-0.15-0.714-0.15-1.453V4.507h-0.902V3.55h0.902V1.752l1.225-0.738V3.55h1.236v0.957h-1.236
			v4.245c0,0.351,0.021,0.577,0.064,0.677s0.113,0.18,0.211,0.239c0.1,0.059,0.238,0.089,0.422,0.089
			C300.314,9.757,300.494,9.741,300.717,9.709z"/>
		<path d="M301.92,10.81V0.788h1.23v3.596c0.574-0.666,1.299-0.998,2.174-0.998c0.539,0,1.006,0.106,1.402,0.318
			s0.68,0.505,0.85,0.878c0.172,0.374,0.258,0.916,0.258,1.627v4.601h-1.23V6.209c0-0.615-0.135-1.063-0.4-1.343
			c-0.268-0.28-0.645-0.42-1.131-0.42c-0.365,0-0.709,0.095-1.029,0.284c-0.322,0.189-0.551,0.445-0.688,0.769
			s-0.205,0.77-0.205,1.34v3.972H301.92z"/>
	</g>
	<path fill="#7CBA00" d="M2,51.692h25.512v25.512H2V51.692z M27.512,51.692h25.512v25.512H27.512V51.692z M53.023,51.692h25.512
		v25.512H53.023V51.692z M206.095,51.692h25.512v25.512h-25.512V51.692z M231.606,51.692h25.512v25.512h-25.512V51.692z
		 M308.142,51.692h25.512v25.512h-25.512V51.692z M384.678,51.692h25.511v25.512h-25.511V51.692z M435.7,51.692h25.513v25.512H435.7
		V51.692z M486.725,51.692h25.512v25.512h-25.512V51.692z M512.236,51.692h25.512v25.512h-25.512V51.692z M537.748,51.692h25.512
		v25.512h-25.512V51.692z"/>
	<path fill="#DDDDDD" d="M78.536,51.692h25.512v25.512H78.536V51.692z M104.048,51.692h25.511v25.512h-25.511V51.692z
		 M129.559,51.692h25.512v25.512h-25.512V51.692z M155.071,51.692h25.512v25.512h-25.512V51.692z M180.583,51.692h25.512v25.512
		h-25.512V51.692z"/>
	<path fill="#F8866D" d="M257.119,51.692h25.511v25.512h-25.511V51.692z M282.63,51.692h25.512v25.512H282.63V51.692z
		 M410.188,51.692H435.7v25.512h-25.512V51.692z"/>
	<path fill="#DDDDDD" d="M333.653,51.692h25.513v25.512h-25.513V51.692z M359.166,51.692h25.512v25.512h-25.512V51.692z
		 M461.213,51.692h25.512v25.512h-25.512V51.692z"/>
	<path fill="none" stroke="#FFFFFF" stroke-miterlimit="10" d="M27.512,77.204V51.692 M53.023,77.204V51.692 M78.536,77.204V51.692
		 M104.048,77.204V51.692 M129.559,77.204V51.692 M155.071,77.204V51.692 M180.583,77.204V51.692 M206.095,77.204V51.692
		 M231.606,77.204V51.692 M257.119,77.204V51.692 M282.63,77.204V51.692 M308.142,77.204V51.692 M333.653,77.204V51.692
		 M359.166,77.204V51.692 M384.678,77.204V51.692 M410.188,77.204V51.692 M435.7,77.204V51.692 M461.213,77.204V51.692
		 M486.725,77.204V51.692 M512.236,77.204V51.692 M537.748,77.204V51.692"/>
	<g>
		<path d="M14.805,66.258v-2.171h5.607v5.133c-0.545,0.527-1.334,0.992-2.369,1.393c-1.034,0.401-2.082,0.603-3.142,0.603
			c-1.348,0-2.522-0.282-3.524-0.849c-1.002-0.564-1.755-1.373-2.259-2.426c-0.504-1.051-0.756-2.195-0.756-3.432
			c0-1.342,0.281-2.534,0.844-3.577s1.386-1.843,2.47-2.399c0.826-0.428,1.854-0.642,3.085-0.642c1.6,0,2.849,0.336,3.749,1.007
			s1.478,1.598,1.736,2.781l-2.584,0.483c-0.182-0.633-0.523-1.132-1.024-1.499c-0.501-0.365-1.126-0.549-1.876-0.549
			c-1.137,0-2.041,0.36-2.711,1.081s-1.006,1.79-1.006,3.208c0,1.529,0.34,2.676,1.02,3.441c0.68,0.764,1.57,1.146,2.672,1.146
			c0.545,0,1.091-0.106,1.639-0.32s1.018-0.474,1.411-0.778v-1.635H14.805z"/>
		<path d="M40.56,66.258v-2.171h5.607v5.133c-0.545,0.527-1.334,0.992-2.369,1.393c-1.034,0.401-2.082,0.603-3.142,0.603
			c-1.348,0-2.522-0.282-3.524-0.849c-1.002-0.564-1.755-1.373-2.259-2.426c-0.504-1.051-0.756-2.195-0.756-3.432
			c0-1.342,0.281-2.534,0.844-3.577s1.386-1.843,2.47-2.399c0.826-0.428,1.854-0.642,3.085-0.642c1.6,0,2.849,0.336,3.749,1.007
			s1.478,1.598,1.736,2.781l-2.584,0.483c-0.182-0.633-0.523-1.132-1.024-1.499c-0.501-0.365-1.126-0.549-1.876-0.549
			c-1.137,0-2.041,0.36-2.711,1.081s-1.006,1.79-1.006,3.208c0,1.529,0.34,2.676,1.02,3.441c0.68,0.764,1.57,1.146,2.672,1.146
			c0.545,0,1.091-0.106,1.639-0.32s1.018-0.474,1.411-0.778v-1.635H40.56z"/>
	</g>
	<g>
		<path d="M66.078,66.258v-2.171h5.607v5.133c-0.545,0.527-1.334,0.992-2.369,1.393c-1.034,0.401-2.082,0.603-3.142,0.603
			c-1.348,0-2.522-0.282-3.524-0.849c-1.002-0.564-1.755-1.373-2.259-2.426c-0.504-1.051-0.756-2.195-0.756-3.432
			c0-1.342,0.281-2.534,0.844-3.577s1.386-1.843,2.47-2.399c0.826-0.428,1.854-0.642,3.085-0.642c1.6,0,2.849,0.336,3.749,1.007
			s1.478,1.598,1.736,2.781l-2.584,0.483c-0.182-0.633-0.523-1.132-1.024-1.499c-0.501-0.365-1.126-0.549-1.876-0.549
			c-1.137,0-2.041,0.36-2.711,1.081s-1.006,1.79-1.006,3.208c0,1.529,0.34,2.676,1.02,3.441c0.68,0.764,1.57,1.146,2.672,1.146
			c0.545,0,1.091-0.106,1.639-0.32s1.018-0.474,1.411-0.778v-1.635H66.078z"/>
		<path d="M90,70.995V60.29h-3.823v-2.18h10.239v2.18h-3.814v10.705H90z"/>
	</g>
	<g>
		<path d="M123.563,70.995h-2.83l-1.125-2.927h-5.15l-1.063,2.927h-2.76l5.019-12.885h2.751L123.563,70.995z M118.772,65.897
			l-1.775-4.781l-1.74,4.781H118.772z"/>
		<path d="M145.373,66.258l2.522,0.8c-0.387,1.406-1.03,2.451-1.929,3.133c-0.899,0.684-2.041,1.024-3.423,1.024
			c-1.711,0-3.117-0.585-4.219-1.753c-1.102-1.17-1.652-2.768-1.652-4.795c0-2.145,0.554-3.811,1.661-4.996
			c1.107-1.188,2.563-1.78,4.368-1.78c1.576,0,2.856,0.466,3.841,1.397c0.586,0.551,1.025,1.342,1.318,2.373l-2.575,0.615
			c-0.152-0.668-0.47-1.195-0.954-1.582s-1.071-0.58-1.762-0.58c-0.955,0-1.73,0.343-2.325,1.028s-0.892,1.796-0.892,3.331
			c0,1.629,0.293,2.789,0.879,3.48s1.348,1.037,2.285,1.037c0.691,0,1.286-0.22,1.784-0.659S145.156,67.201,145.373,66.258z"/>
	</g>
	<g>
		<path d="M174.594,70.995h-2.83l-1.125-2.927h-5.15l-1.063,2.927h-2.76l5.019-12.885h2.751L174.594,70.995z M169.804,65.897
			l-1.775-4.781l-1.74,4.781H169.804z"/>
		<path d="M192.05,70.995V60.29h-3.823v-2.18h10.239v2.18h-3.814v10.705H192.05z"/>
	</g>
	<g>
		<path d="M219.148,66.258v-2.171h5.607v5.133c-0.545,0.527-1.334,0.992-2.369,1.393c-1.034,0.401-2.082,0.603-3.142,0.603
			c-1.348,0-2.522-0.282-3.524-0.849c-1.002-0.564-1.755-1.373-2.259-2.426c-0.504-1.051-0.756-2.195-0.756-3.432
			c0-1.342,0.281-2.534,0.844-3.577s1.386-1.843,2.47-2.399c0.826-0.428,1.854-0.642,3.085-0.642c1.6,0,2.849,0.336,3.749,1.007
			s1.478,1.598,1.736,2.781l-2.584,0.483c-0.182-0.633-0.523-1.132-1.024-1.499c-0.501-0.365-1.126-0.549-1.876-0.549
			c-1.137,0-2.041,0.36-2.711,1.081s-1.006,1.79-1.006,3.208c0,1.529,0.34,2.676,1.02,3.441c0.68,0.764,1.57,1.146,2.672,1.146
			c0.545,0,1.091-0.106,1.639-0.32s1.018-0.474,1.411-0.778v-1.635H219.148z"/>
		<path d="M244.651,66.258v-2.171h5.607v5.133c-0.545,0.527-1.334,0.992-2.369,1.393c-1.034,0.401-2.082,0.603-3.142,0.603
			c-1.348,0-2.522-0.282-3.524-0.849c-1.002-0.564-1.755-1.373-2.259-2.426c-0.504-1.051-0.756-2.195-0.756-3.432
			c0-1.342,0.281-2.534,0.844-3.577s1.386-1.843,2.47-2.399c0.826-0.428,1.854-0.642,3.085-0.642c1.6,0,2.849,0.336,3.749,1.007
			s1.478,1.598,1.736,2.781l-2.584,0.483c-0.182-0.633-0.523-1.132-1.024-1.499c-0.501-0.365-1.126-0.549-1.876-0.549
			c-1.137,0-2.041,0.36-2.711,1.081s-1.006,1.79-1.006,3.208c0,1.529,0.34,2.676,1.02,3.441c0.68,0.764,1.57,1.146,2.672,1.146
			c0.545,0,1.091-0.106,1.639-0.32s1.018-0.474,1.411-0.778v-1.635H244.651z"/>
	</g>
	<g>
		<path d="M276.644,70.995h-2.83l-1.125-2.927h-5.15l-1.063,2.927h-2.76l5.019-12.885h2.751L276.644,70.995z M271.854,65.897
			l-1.775-4.781l-1.74,4.781H271.854z"/>
		<path d="M294.1,70.995V60.29h-3.823v-2.18h10.239v2.18h-3.814v10.705H294.1z"/>
	</g>
	<g>
		<path d="M321.203,66.258v-2.171h5.607v5.133c-0.545,0.527-1.335,0.992-2.368,1.393c-1.035,0.401-2.082,0.603-3.143,0.603
			c-1.348,0-2.522-0.282-3.524-0.849c-1.002-0.564-1.755-1.373-2.259-2.426c-0.504-1.051-0.756-2.195-0.756-3.432
			c0-1.342,0.281-2.534,0.844-3.577s1.386-1.843,2.47-2.399c0.826-0.428,1.854-0.642,3.085-0.642c1.6,0,2.849,0.336,3.748,1.007
			s1.479,1.598,1.736,2.781l-2.584,0.483c-0.182-0.633-0.523-1.132-1.023-1.499c-0.502-0.365-1.127-0.549-1.877-0.549
			c-1.137,0-2.041,0.36-2.711,1.081c-0.672,0.721-1.007,1.79-1.007,3.208c0,1.529,0.34,2.676,1.02,3.441
			c0.68,0.764,1.57,1.146,2.672,1.146c0.545,0,1.091-0.106,1.64-0.32c0.547-0.214,1.018-0.474,1.41-0.778v-1.635H321.203z"/>
		<path d="M349.46,66.258l2.522,0.8c-0.387,1.406-1.03,2.451-1.929,3.133c-0.9,0.684-2.041,1.024-3.424,1.024
			c-1.711,0-3.117-0.585-4.219-1.753c-1.102-1.17-1.652-2.768-1.652-4.795c0-2.145,0.554-3.811,1.661-4.996
			c1.107-1.188,2.563-1.78,4.368-1.78c1.576,0,2.856,0.466,3.841,1.397c0.586,0.551,1.025,1.342,1.318,2.373l-2.575,0.615
			c-0.152-0.668-0.471-1.195-0.953-1.582c-0.484-0.387-1.071-0.58-1.763-0.58c-0.955,0-1.73,0.343-2.325,1.028
			s-0.892,1.796-0.892,3.331c0,1.629,0.293,2.789,0.879,3.48s1.348,1.037,2.285,1.037c0.691,0,1.286-0.22,1.784-0.659
			S349.243,67.201,349.46,66.258z"/>
	</g>
	<g>
		<path d="M370.636,70.995V60.29h-3.823v-2.18h10.239v2.18h-3.814v10.705H370.636z"/>
		<path d="M397.738,66.258v-2.171h5.607v5.133c-0.545,0.527-1.335,0.992-2.369,1.393c-1.034,0.401-2.081,0.603-3.142,0.603
			c-1.348,0-2.522-0.282-3.524-0.849c-1.002-0.564-1.755-1.373-2.259-2.426c-0.504-1.051-0.756-2.195-0.756-3.432
			c0-1.342,0.281-2.534,0.844-3.577s1.386-1.843,2.47-2.399c0.826-0.428,1.854-0.642,3.085-0.642c1.6,0,2.849,0.336,3.749,1.007
			c0.898,0.671,1.478,1.598,1.735,2.781l-2.584,0.483c-0.182-0.633-0.522-1.132-1.024-1.499c-0.5-0.365-1.126-0.549-1.876-0.549
			c-1.137,0-2.041,0.36-2.712,1.081s-1.006,1.79-1.006,3.208c0,1.529,0.34,2.676,1.02,3.441c0.68,0.764,1.57,1.146,2.672,1.146
			c0.545,0,1.091-0.106,1.639-0.32s1.019-0.474,1.411-0.778v-1.635H397.738z"/>
		<path d="M421.66,70.995V60.29h-3.823v-2.18h10.239v2.18h-3.814v10.705H421.66z"/>
		<path d="M448.763,66.258v-2.171h5.607v5.133c-0.545,0.527-1.335,0.992-2.368,1.393c-1.035,0.401-2.082,0.603-3.143,0.603
			c-1.348,0-2.522-0.282-3.524-0.849c-1.002-0.564-1.755-1.373-2.259-2.426c-0.504-1.051-0.756-2.195-0.756-3.432
			c0-1.342,0.281-2.534,0.844-3.577s1.386-1.843,2.47-2.399c0.826-0.428,1.854-0.642,3.085-0.642c1.6,0,2.849,0.336,3.748,1.007
			s1.479,1.598,1.736,2.781l-2.584,0.483c-0.182-0.633-0.523-1.132-1.023-1.499c-0.502-0.365-1.127-0.549-1.877-0.549
			c-1.137,0-2.041,0.36-2.711,1.081c-0.672,0.721-1.007,1.79-1.007,3.208c0,1.529,0.34,2.676,1.02,3.441
			c0.68,0.764,1.57,1.146,2.672,1.146c0.545,0,1.091-0.106,1.64-0.32c0.547-0.214,1.018-0.474,1.41-0.778v-1.635H448.763z"/>
		<path d="M472.684,70.995V60.29h-3.823v-2.18H479.1v2.18h-3.814v10.705H472.684z"/>
		<path d="M499.787,66.258v-2.171h5.607v5.133c-0.545,0.527-1.335,0.992-2.369,1.393c-1.034,0.401-2.081,0.603-3.142,0.603
			c-1.348,0-2.522-0.282-3.524-0.849c-1.002-0.564-1.755-1.373-2.259-2.426c-0.504-1.051-0.756-2.195-0.756-3.432
			c0-1.342,0.281-2.534,0.844-3.577s1.386-1.843,2.47-2.399c0.826-0.428,1.854-0.642,3.085-0.642c1.6,0,2.849,0.336,3.749,1.007
			c0.898,0.671,1.478,1.598,1.735,2.781l-2.584,0.483c-0.182-0.633-0.522-1.132-1.024-1.499c-0.5-0.365-1.126-0.549-1.876-0.549
			c-1.137,0-2.041,0.36-2.712,1.081s-1.006,1.79-1.006,3.208c0,1.529,0.34,2.676,1.02,3.441c0.68,0.764,1.57,1.146,2.672,1.146
			c0.545,0,1.091-0.106,1.639-0.32s1.019-0.474,1.411-0.778v-1.635H499.787z"/>
	</g>
	<g>
		<path d="M525.297,66.258v-2.171h5.607v5.133c-0.545,0.527-1.335,0.992-2.368,1.393c-1.035,0.401-2.082,0.603-3.143,0.603
			c-1.348,0-2.522-0.282-3.524-0.849c-1.002-0.564-1.755-1.373-2.259-2.426c-0.504-1.051-0.756-2.195-0.756-3.432
			c0-1.342,0.281-2.534,0.844-3.577s1.386-1.843,2.47-2.399c0.826-0.428,1.854-0.642,3.085-0.642c1.6,0,2.849,0.336,3.748,1.007
			s1.479,1.598,1.736,2.781l-2.584,0.483c-0.182-0.633-0.523-1.132-1.023-1.499c-0.502-0.365-1.127-0.549-1.877-0.549
			c-1.137,0-2.041,0.36-2.711,1.081c-0.672,0.721-1.007,1.79-1.007,3.208c0,1.529,0.34,2.676,1.02,3.441
			c0.68,0.764,1.57,1.146,2.672,1.146c0.545,0,1.091-0.106,1.64-0.32c0.547-0.214,1.018-0.474,1.41-0.778v-1.635H525.297z"/>
		<path d="M551.052,66.258v-2.171h5.607v5.133c-0.545,0.527-1.335,0.992-2.369,1.393c-1.034,0.401-2.081,0.603-3.142,0.603
			c-1.348,0-2.522-0.282-3.524-0.849c-1.002-0.564-1.755-1.373-2.259-2.426c-0.504-1.051-0.756-2.195-0.756-3.432
			c0-1.342,0.281-2.534,0.844-3.577s1.386-1.843,2.47-2.399c0.826-0.428,1.854-0.642,3.085-0.642c1.6,0,2.849,0.336,3.749,1.007
			c0.898,0.671,1.478,1.598,1.735,2.781l-2.584,0.483c-0.182-0.633-0.522-1.132-1.024-1.499c-0.5-0.365-1.126-0.549-1.876-0.549
			c-1.137,0-2.041,0.36-2.712,1.081s-1.006,1.79-1.006,3.208c0,1.529,0.34,2.676,1.02,3.441c0.68,0.764,1.57,1.146,2.672,1.146
			c0.545,0,1.091-0.106,1.639-0.32s1.019-0.474,1.411-0.778v-1.635H551.052z"/>
	</g>
	<path fill="none" stroke="#000000" d="M2,20.511v90.708 M78.536,20.511v56.693 M211.557,20.511h116.635"/>
	<polyline points="206.095,20.511 213.106,23.063 211.557,20.511 213.106,17.959 206.095,20.511 	"/>
	<path d="M333.653,20.511l-7.012-2.552c0,0,1.55,2.552,0,5.104L333.653,20.511"/>
	<line fill="none" stroke="#000000" x1="206.095" y1="20.511" x2="206.095" y2="77.204"/>
	<g>
		<path d="M106.75,10.81V0.788h1.326v8.839h4.936v1.183H106.75z"/>
		<path d="M113.976,7.18c0-1.344,0.374-2.34,1.121-2.987c0.625-0.538,1.385-0.807,2.283-0.807c0.998,0,1.814,0.327,2.447,0.981
			s0.95,1.558,0.95,2.71c0,0.934-0.14,1.669-0.42,2.205s-0.688,0.951-1.224,1.248s-1.12,0.444-1.753,0.444
			c-1.016,0-1.838-0.326-2.464-0.978S113.976,8.406,113.976,7.18z M115.241,7.18c0,0.93,0.203,1.626,0.608,2.088
			s0.916,0.694,1.531,0.694c0.611,0,1.119-0.232,1.524-0.697s0.608-1.173,0.608-2.126c0-0.898-0.204-1.578-0.612-2.041
			s-0.915-0.694-1.521-0.694c-0.615,0-1.125,0.23-1.531,0.69S115.241,6.25,115.241,7.18z"/>
		<path d="M121.762,7.18c0-1.344,0.374-2.34,1.121-2.987c0.625-0.538,1.385-0.807,2.283-0.807c0.998,0,1.814,0.327,2.447,0.981
			s0.95,1.558,0.95,2.71c0,0.934-0.14,1.669-0.42,2.205s-0.688,0.951-1.224,1.248s-1.12,0.444-1.753,0.444
			c-1.016,0-1.838-0.326-2.464-0.978S121.762,8.406,121.762,7.18z M123.027,7.18c0,0.93,0.203,1.626,0.608,2.088
			s0.916,0.694,1.531,0.694c0.611,0,1.119-0.232,1.524-0.697s0.608-1.173,0.608-2.126c0-0.898-0.204-1.578-0.612-2.041
			s-0.915-0.694-1.521-0.694c-0.615,0-1.125,0.23-1.531,0.69S123.027,6.25,123.027,7.18z"/>
		<path d="M130.006,13.592V3.55h1.121v0.943c0.264-0.369,0.563-0.646,0.896-0.831s0.736-0.277,1.21-0.277
			c0.62,0,1.167,0.16,1.641,0.479s0.832,0.769,1.073,1.35s0.362,1.218,0.362,1.911c0,0.743-0.133,1.412-0.4,2.006
			s-0.654,1.05-1.162,1.367s-1.042,0.475-1.603,0.475c-0.41,0-0.778-0.086-1.104-0.26s-0.594-0.392-0.803-0.656v3.534H130.006z
			 M131.121,7.221c0,0.934,0.189,1.625,0.567,2.071s0.836,0.67,1.374,0.67c0.547,0,1.015-0.231,1.405-0.694s0.584-1.179,0.584-2.15
			c0-0.925-0.19-1.618-0.571-2.078s-0.835-0.69-1.364-0.69c-0.524,0-0.988,0.245-1.391,0.735S131.121,6.287,131.121,7.221z"/>
		<path d="M141.655,10.81V0.788h1.23V10.81H141.655z"/>
		<path d="M149.762,8.472l1.271,0.157c-0.201,0.743-0.572,1.319-1.114,1.729s-1.235,0.615-2.078,0.615
			c-1.062,0-1.904-0.327-2.526-0.981s-0.933-1.571-0.933-2.751c0-1.221,0.314-2.169,0.943-2.844s1.445-1.012,2.447-1.012
			c0.971,0,1.764,0.331,2.379,0.991s0.923,1.59,0.923,2.789c0,0.073-0.002,0.182-0.007,0.328h-5.414
			c0.045,0.797,0.271,1.408,0.677,1.832s0.912,0.636,1.518,0.636c0.451,0,0.836-0.119,1.155-0.355S149.575,8.991,149.762,8.472z
			 M145.722,6.482h4.054c-0.055-0.611-0.209-1.069-0.465-1.374c-0.392-0.474-0.9-0.711-1.524-0.711c-0.565,0-1.04,0.189-1.425,0.567
			S145.763,5.849,145.722,6.482z"/>
		<path d="M152.579,10.81V3.55h1.107v1.032c0.533-0.797,1.303-1.196,2.311-1.196c0.438,0,0.84,0.079,1.207,0.236
			s0.642,0.363,0.824,0.619s0.31,0.558,0.383,0.909c0.045,0.228,0.068,0.626,0.068,1.196v4.464h-1.23V6.394
			c0-0.501-0.048-0.876-0.144-1.125s-0.266-0.447-0.509-0.595s-0.53-0.222-0.858-0.222c-0.524,0-0.977,0.167-1.357,0.499
			s-0.571,0.964-0.571,1.894v3.965H152.579z"/>
		<path d="M160.139,11.411l1.196,0.178c0.05,0.369,0.189,0.638,0.417,0.807c0.305,0.228,0.722,0.342,1.251,0.342
			c0.57,0,1.009-0.114,1.319-0.342s0.52-0.547,0.629-0.957c0.064-0.25,0.093-0.777,0.089-1.579c-0.538,0.633-1.208,0.95-2.01,0.95
			c-0.998,0-1.771-0.36-2.317-1.08s-0.82-1.583-0.82-2.591c0-0.693,0.125-1.332,0.376-1.917s0.614-1.038,1.09-1.357
			s1.036-0.479,1.678-0.479c0.857,0,1.563,0.346,2.119,1.039V3.55h1.135v6.275c0,1.13-0.115,1.931-0.345,2.403
			s-0.595,0.844-1.094,1.118s-1.113,0.41-1.842,0.41c-0.866,0-1.565-0.195-2.099-0.584S160.121,12.195,160.139,11.411z
			 M161.158,7.05c0,0.953,0.189,1.647,0.567,2.085s0.852,0.656,1.422,0.656c0.565,0,1.039-0.218,1.422-0.653
			s0.574-1.118,0.574-2.047c0-0.889-0.197-1.559-0.591-2.01s-0.869-0.677-1.425-0.677c-0.547,0-1.012,0.222-1.395,0.667
			S161.158,6.175,161.158,7.05z"/>
		<path d="M170.837,9.709l0.178,1.087c-0.346,0.073-0.656,0.109-0.93,0.109c-0.447,0-0.793-0.071-1.039-0.212
			s-0.419-0.327-0.52-0.557s-0.15-0.714-0.15-1.453V4.507h-0.902V3.55h0.902V1.752l1.224-0.738V3.55h1.237v0.957H169.6v4.245
			c0,0.351,0.021,0.577,0.065,0.677s0.114,0.18,0.212,0.239s0.238,0.089,0.42,0.089C170.434,9.757,170.614,9.741,170.837,9.709z"/>
		<path d="M172.041,10.81V0.788h1.23v3.596c0.574-0.666,1.299-0.998,2.174-0.998c0.538,0,1.005,0.106,1.401,0.318
			s0.68,0.505,0.851,0.878s0.256,0.916,0.256,1.627v4.601h-1.23V6.209c0-0.615-0.133-1.063-0.4-1.343s-0.644-0.42-1.131-0.42
			c-0.365,0-0.708,0.095-1.029,0.284s-0.55,0.445-0.687,0.769s-0.205,0.77-0.205,1.34v3.972H172.041z"/>
	</g>
	<line fill="none" stroke="#000000" x1="83.998" y1="20.511" x2="200.633" y2="20.511"/>
	<polyline points="78.536,20.511 85.548,23.063 83.998,20.511 85.548,17.959 78.536,20.511 	"/>
	<path d="M206.095,20.511l-7.012-2.552c0,0,1.55,2.552,0,5.104L206.095,20.511"/>
	<g>
		<path d="M32.984,40.622V30.601h4.443c0.893,0,1.572,0.09,2.037,0.27s0.836,0.498,1.114,0.954s0.417,0.959,0.417,1.511
			c0,0.711-0.23,1.31-0.69,1.798s-1.171,0.797-2.133,0.93c0.351,0.168,0.618,0.335,0.8,0.499c0.387,0.355,0.754,0.8,1.101,1.333
			l1.743,2.728h-1.668l-1.326-2.085c-0.387-0.602-0.707-1.062-0.957-1.381s-0.475-0.542-0.673-0.67s-0.4-0.216-0.605-0.267
			c-0.15-0.032-0.396-0.048-0.738-0.048h-1.538v4.45H32.984z M34.311,35.023h2.851c0.606,0,1.08-0.063,1.422-0.188
			s0.602-0.326,0.779-0.602s0.267-0.575,0.267-0.899c0-0.474-0.172-0.864-0.516-1.169s-0.888-0.458-1.63-0.458h-3.172V35.023z"/>
		<path d="M47.21,40.622h-1.23v-7.841c-0.296,0.283-0.685,0.565-1.166,0.848s-0.913,0.495-1.295,0.636v-1.189
			c0.688-0.324,1.29-0.715,1.805-1.176s0.879-0.907,1.094-1.34h0.793V40.622z"/>
	</g>
	<g>
		<path d="M133.847,40.622V30.601h1.326v8.839h4.936v1.183H133.847z"/>
		<path d="M145.823,40.622h-1.23v-7.841c-0.296,0.283-0.685,0.565-1.166,0.848s-0.913,0.495-1.295,0.636v-1.189
			c0.688-0.324,1.29-0.715,1.805-1.176s0.879-0.907,1.094-1.34h0.793V40.622z"/>
	</g>
	<line fill="none" stroke="#000000" x1="384.678" y1="20.511" x2="384.678" y2="77.204"/>
	<g>
		<path d="M267.125,40.622V30.601h4.443c0.893,0,1.572,0.09,2.037,0.27s0.836,0.498,1.114,0.954s0.417,0.959,0.417,1.511
			c0,0.711-0.23,1.31-0.69,1.798s-1.171,0.797-2.133,0.93c0.351,0.168,0.618,0.335,0.8,0.499c0.387,0.355,0.754,0.8,1.101,1.333
			l1.743,2.728h-1.668l-1.326-2.085c-0.387-0.602-0.707-1.062-0.957-1.381s-0.475-0.542-0.673-0.67s-0.4-0.216-0.605-0.267
			c-0.15-0.032-0.396-0.048-0.738-0.048h-1.538v4.45H267.125z M268.451,35.023h2.851c0.606,0,1.08-0.063,1.422-0.188
			s0.602-0.326,0.779-0.602s0.267-0.575,0.267-0.899c0-0.474-0.172-0.864-0.516-1.169s-0.888-0.458-1.63-0.458h-3.172V35.023z"/>
		<path d="M283.183,39.439v1.183h-6.624c-0.009-0.296,0.039-0.581,0.144-0.854c0.168-0.451,0.438-0.896,0.81-1.333
			s0.908-0.943,1.61-1.518c1.089-0.893,1.825-1.601,2.208-2.123s0.574-1.015,0.574-1.48c0-0.488-0.174-0.899-0.523-1.234
			s-0.803-0.502-1.364-0.502c-0.592,0-1.066,0.178-1.422,0.533s-0.536,0.848-0.54,1.477l-1.265-0.13
			c0.086-0.943,0.413-1.662,0.978-2.157s1.324-0.742,2.276-0.742c0.961,0,1.723,0.267,2.283,0.8s0.841,1.194,0.841,1.982
			c0,0.401-0.082,0.795-0.246,1.183s-0.437,0.795-0.817,1.224s-1.013,1.016-1.897,1.764c-0.738,0.62-1.212,1.04-1.422,1.261
			s-0.383,0.443-0.52,0.667H283.183z"/>
	</g>
	<path fill="none" stroke="#000000" d="M333.653,20.511v56.693 M461.213,20.511v56.693 M486.725,20.511v56.693"/>
	<g>
		<path d="M352.122,40.622V30.601h1.326v8.839h4.936v1.183H352.122z"/>
		<path d="M365.931,39.439v1.183h-6.624c-0.009-0.296,0.039-0.581,0.144-0.854c0.169-0.451,0.438-0.896,0.811-1.333
			c0.371-0.438,0.907-0.943,1.609-1.518c1.089-0.893,1.825-1.601,2.208-2.123s0.574-1.015,0.574-1.48
			c0-0.488-0.175-0.899-0.522-1.234c-0.35-0.335-0.804-0.502-1.364-0.502c-0.593,0-1.066,0.178-1.422,0.533s-0.535,0.848-0.54,1.477
			l-1.265-0.13c0.087-0.943,0.412-1.662,0.978-2.157s1.324-0.742,2.276-0.742c0.962,0,1.723,0.267,2.283,0.8
			s0.841,1.194,0.841,1.982c0,0.401-0.082,0.795-0.246,1.183s-0.437,0.795-0.816,1.224c-0.381,0.428-1.014,1.016-1.897,1.764
			c-0.738,0.62-1.212,1.04-1.422,1.261s-0.383,0.443-0.52,0.667H365.931z"/>
	</g>
	<g>
		<path d="M413.391,40.622V30.601h4.443c0.894,0,1.572,0.09,2.037,0.27s0.836,0.498,1.114,0.954s0.417,0.959,0.417,1.511
			c0,0.711-0.23,1.31-0.69,1.798s-1.171,0.797-2.133,0.93c0.351,0.168,0.617,0.335,0.8,0.499c0.388,0.355,0.754,0.8,1.101,1.333
			l1.743,2.728h-1.668l-1.326-2.085c-0.388-0.602-0.706-1.062-0.957-1.381s-0.476-0.542-0.673-0.67
			c-0.199-0.127-0.4-0.216-0.605-0.267c-0.15-0.032-0.396-0.048-0.738-0.048h-1.538v4.45H413.391z M414.717,35.023h2.851
			c0.606,0,1.08-0.063,1.422-0.188s0.602-0.326,0.779-0.602s0.267-0.575,0.267-0.899c0-0.474-0.172-0.864-0.517-1.169
			c-0.344-0.305-0.887-0.458-1.63-0.458h-3.172V35.023z"/>
		<path d="M422.988,37.977l1.23-0.164c0.142,0.697,0.382,1.2,0.722,1.507c0.339,0.308,0.753,0.461,1.24,0.461
			c0.579,0,1.067-0.201,1.467-0.602c0.398-0.401,0.598-0.898,0.598-1.49c0-0.565-0.185-1.031-0.554-1.398s-0.839-0.55-1.408-0.55
			c-0.232,0-0.521,0.045-0.868,0.137l0.137-1.08c0.082,0.009,0.148,0.014,0.198,0.014c0.524,0,0.996-0.137,1.415-0.41
			s0.629-0.695,0.629-1.265c0-0.451-0.152-0.825-0.458-1.121s-0.699-0.444-1.183-0.444c-0.479,0-0.877,0.15-1.196,0.451
			s-0.524,0.752-0.615,1.354l-1.23-0.219c0.15-0.825,0.492-1.464,1.025-1.917s1.196-0.68,1.989-0.68
			c0.547,0,1.051,0.117,1.511,0.352s0.813,0.555,1.056,0.96c0.244,0.406,0.366,0.836,0.366,1.292c0,0.433-0.116,0.827-0.349,1.183
			s-0.576,0.638-1.032,0.848c0.593,0.137,1.053,0.42,1.381,0.851s0.492,0.97,0.492,1.617c0,0.875-0.319,1.617-0.957,2.225
			s-1.444,0.913-2.42,0.913c-0.88,0-1.61-0.262-2.19-0.786C423.401,39.49,423.07,38.811,422.988,37.977z"/>
	</g>
	<g>
		<path d="M519.408,40.622V30.601h4.443c0.894,0,1.572,0.09,2.037,0.27s0.836,0.498,1.114,0.954s0.417,0.959,0.417,1.511
			c0,0.711-0.23,1.31-0.69,1.798s-1.171,0.797-2.133,0.93c0.351,0.168,0.617,0.335,0.8,0.499c0.388,0.355,0.754,0.8,1.101,1.333
			l1.743,2.728h-1.668l-1.326-2.085c-0.388-0.602-0.706-1.062-0.957-1.381s-0.476-0.542-0.673-0.67
			c-0.199-0.127-0.4-0.216-0.605-0.267c-0.15-0.032-0.396-0.048-0.738-0.048h-1.538v4.45H519.408z M520.734,35.023h2.851
			c0.606,0,1.08-0.063,1.422-0.188s0.602-0.326,0.779-0.602s0.267-0.575,0.267-0.899c0-0.474-0.172-0.864-0.517-1.169
			c-0.344-0.305-0.887-0.458-1.63-0.458h-3.172V35.023z"/>
		<path d="M532.943,40.622v-2.399h-4.348v-1.128l4.573-6.494h1.005v6.494h1.354v1.128h-1.354v2.399H532.943z M532.943,37.095v-4.519
			l-3.138,4.519H532.943z"/>
	</g>
	<g>
		<path d="M466.638,40.622V30.601h1.326v8.839h4.936v1.183H466.638z"/>
		<path d="M473.986,37.977l1.23-0.164c0.142,0.697,0.382,1.2,0.722,1.507c0.339,0.308,0.753,0.461,1.24,0.461
			c0.579,0,1.067-0.201,1.467-0.602c0.398-0.401,0.598-0.898,0.598-1.49c0-0.565-0.185-1.031-0.554-1.398s-0.839-0.55-1.408-0.55
			c-0.232,0-0.521,0.045-0.868,0.137l0.137-1.08c0.082,0.009,0.148,0.014,0.198,0.014c0.524,0,0.996-0.137,1.415-0.41
			s0.629-0.695,0.629-1.265c0-0.451-0.152-0.825-0.458-1.121s-0.699-0.444-1.183-0.444c-0.479,0-0.877,0.15-1.196,0.451
			s-0.524,0.752-0.615,1.354l-1.23-0.219c0.15-0.825,0.492-1.464,1.025-1.917s1.196-0.68,1.989-0.68
			c0.547,0,1.051,0.117,1.511,0.352s0.813,0.555,1.056,0.96c0.244,0.406,0.366,0.836,0.366,1.292c0,0.433-0.116,0.827-0.349,1.183
			s-0.576,0.638-1.032,0.848c0.593,0.137,1.053,0.42,1.381,0.851s0.492,0.97,0.492,1.617c0,0.875-0.319,1.617-0.957,2.225
			s-1.444,0.913-2.42,0.913c-0.88,0-1.61-0.262-2.19-0.786C474.399,39.49,474.068,38.811,473.986,37.977z"/>
	</g>
	<path fill="none" stroke="#000000" d="M563.26,20.511v90.708 M7.462,111.22h550.335"/>
	<polyline points="2,111.22 9.012,113.771 7.462,111.22 9.012,108.668 2,111.22 	"/>
	<path d="M563.26,111.22l-7.012-2.552c0,0,1.55,2.552,0,5.104L563.26,111.22"/>
	<g>
		<path d="M257.198,127.8v-10.021h1.326v8.839h4.936v1.183H257.198z"/>
		<path d="M269.852,125.462l1.271,0.157c-0.201,0.743-0.572,1.319-1.114,1.729s-1.235,0.615-2.078,0.615
			c-1.062,0-1.904-0.327-2.526-0.98c-0.622-0.654-0.933-1.571-0.933-2.752c0-1.222,0.314-2.169,0.943-2.844s1.445-1.012,2.447-1.012
			c0.971,0,1.764,0.33,2.379,0.991s0.923,1.591,0.923,2.789c0,0.073-0.002,0.183-0.007,0.328h-5.414
			c0.045,0.798,0.271,1.408,0.677,1.832s0.912,0.636,1.518,0.636c0.451,0,0.836-0.118,1.155-0.355S269.665,125.981,269.852,125.462z
			 M265.812,123.473h4.054c-0.055-0.61-0.209-1.068-0.465-1.374c-0.392-0.474-0.9-0.711-1.524-0.711
			c-0.565,0-1.04,0.189-1.425,0.567S265.853,122.839,265.812,123.473z"/>
		<path d="M272.668,127.8v-7.26h1.107v1.032c0.533-0.798,1.303-1.196,2.311-1.196c0.438,0,0.84,0.078,1.207,0.236
			c0.367,0.156,0.642,0.363,0.824,0.618s0.31,0.559,0.383,0.909c0.045,0.228,0.068,0.627,0.068,1.196v4.464h-1.23v-4.416
			c0-0.501-0.048-0.876-0.144-1.125c-0.096-0.248-0.266-0.446-0.509-0.594c-0.244-0.148-0.53-0.223-0.858-0.223
			c-0.524,0-0.977,0.166-1.357,0.499s-0.571,0.964-0.571,1.894v3.965H272.668z"/>
		<path d="M280.229,128.401l1.196,0.178c0.05,0.369,0.189,0.638,0.417,0.807c0.305,0.228,0.722,0.342,1.251,0.342
			c0.569,0,1.01-0.114,1.319-0.342s0.52-0.547,0.629-0.957c0.063-0.251,0.094-0.777,0.089-1.579c-0.538,0.634-1.208,0.95-2.01,0.95
			c-0.998,0-1.771-0.36-2.317-1.08s-0.82-1.584-0.82-2.591c0-0.692,0.125-1.332,0.376-1.917c0.25-0.586,0.614-1.038,1.09-1.357
			s1.036-0.479,1.678-0.479c0.856,0,1.563,0.347,2.119,1.039v-0.875h1.135v6.275c0,1.13-0.115,1.932-0.345,2.402
			c-0.23,0.473-0.596,0.845-1.094,1.118c-0.5,0.273-1.113,0.41-1.843,0.41c-0.866,0-1.565-0.194-2.099-0.585
			C280.468,129.772,280.21,129.186,280.229,128.401z M281.247,124.04c0,0.952,0.189,1.647,0.567,2.085s0.852,0.656,1.422,0.656
			c0.565,0,1.039-0.218,1.422-0.653c0.383-0.435,0.574-1.117,0.574-2.047c0-0.889-0.197-1.559-0.591-2.01
			c-0.395-0.451-0.87-0.677-1.426-0.677c-0.547,0-1.012,0.222-1.395,0.667C281.438,122.505,281.247,123.165,281.247,124.04z"/>
		<path d="M290.927,126.699l0.178,1.087c-0.347,0.073-0.656,0.109-0.93,0.109c-0.446,0-0.793-0.07-1.039-0.212
			s-0.419-0.327-0.52-0.558c-0.101-0.229-0.15-0.714-0.15-1.452v-4.177h-0.902v-0.957h0.902v-1.798l1.224-0.738v2.536h1.237v0.957
			h-1.237v4.245c0,0.351,0.021,0.576,0.065,0.677c0.043,0.101,0.113,0.18,0.211,0.239c0.099,0.06,0.238,0.089,0.421,0.089
			C290.523,126.747,290.703,126.731,290.927,126.699z"/>
		<path d="M292.13,127.8v-10.021h1.23v3.596c0.574-0.665,1.299-0.998,2.174-0.998c0.538,0,1.005,0.105,1.401,0.318
			c0.396,0.211,0.681,0.504,0.851,0.878c0.172,0.374,0.257,0.916,0.257,1.627v4.601h-1.23v-4.601c0-0.615-0.134-1.063-0.399-1.343
			c-0.268-0.281-0.645-0.421-1.132-0.421c-0.364,0-0.708,0.095-1.028,0.284c-0.322,0.188-0.551,0.445-0.688,0.769
			s-0.205,0.771-0.205,1.34v3.972H292.13z"/>
	</g>
	<g>
		<path d="M266.53,95.472l2.092-10.021h1.237l-0.745,3.582c0.392-0.36,0.748-0.614,1.066-0.762c0.319-0.148,0.652-0.223,0.998-0.223
			c0.679,0,1.245,0.253,1.699,0.759s0.68,1.242,0.68,2.208c0,0.643-0.091,1.23-0.273,1.764s-0.408,0.98-0.677,1.344
			c-0.269,0.361-0.547,0.651-0.834,0.867c-0.287,0.217-0.581,0.379-0.882,0.486c-0.301,0.106-0.59,0.16-0.868,0.16
			c-0.479,0-0.9-0.127-1.265-0.379c-0.365-0.254-0.649-0.64-0.854-1.159l-0.287,1.374H266.53z M268.362,92.491l-0.007,0.232
			c0,0.62,0.148,1.092,0.444,1.415s0.666,0.485,1.107,0.485c0.433,0,0.831-0.151,1.193-0.455c0.362-0.303,0.66-0.775,0.892-1.418
			s0.349-1.235,0.349-1.777c0-0.61-0.147-1.085-0.441-1.422s-0.657-0.506-1.09-0.506c-0.447,0-0.857,0.172-1.23,0.516
			c-0.374,0.345-0.686,0.874-0.937,1.59C268.456,91.685,268.362,92.131,268.362,92.491z"/>
		<path d="M279.272,94.159c-0.871,0.984-1.761,1.477-2.673,1.477c-0.561,0-1.013-0.16-1.357-0.482
			c-0.344-0.32-0.516-0.714-0.516-1.179c0-0.306,0.078-0.829,0.232-1.572l0.875-4.19h1.237l-0.971,4.642
			c-0.082,0.388-0.123,0.688-0.123,0.902c0,0.273,0.083,0.486,0.25,0.64c0.167,0.152,0.411,0.229,0.735,0.229
			c0.346,0,0.685-0.084,1.015-0.253s0.615-0.396,0.854-0.684s0.434-0.627,0.584-1.019c0.1-0.251,0.216-0.69,0.349-1.319l0.656-3.138
			h1.237l-1.518,7.26h-1.142L279.272,94.159z"/>
		<path d="M282.007,95.472l2.092-10.021h1.237l-2.092,10.021H282.007z"/>
		<path d="M285.145,96.128l1.251,0.116c-0.009,0.282,0.025,0.494,0.103,0.636s0.2,0.251,0.369,0.328
			c0.224,0.101,0.513,0.15,0.868,0.15c0.747,0,1.285-0.193,1.613-0.581c0.214-0.26,0.412-0.825,0.595-1.695l0.123-0.588
			c-0.643,0.651-1.326,0.978-2.051,0.978c-0.733,0-1.348-0.27-1.843-0.811c-0.494-0.539-0.741-1.304-0.741-2.293
			c0-0.815,0.194-1.565,0.585-2.249c0.389-0.684,0.853-1.2,1.391-1.548c0.538-0.35,1.092-0.523,1.661-0.523
			c0.952,0,1.687,0.451,2.201,1.354l0.246-1.189h1.135l-1.463,7.007c-0.159,0.771-0.369,1.37-0.629,1.802
			c-0.26,0.43-0.621,0.764-1.083,1.001c-0.463,0.237-0.997,0.355-1.604,0.355c-0.583,0-1.086-0.075-1.508-0.226
			c-0.421-0.15-0.735-0.37-0.943-0.66c-0.207-0.289-0.311-0.62-0.311-0.994C285.11,96.383,285.122,96.26,285.145,96.128z
			 M286.689,92.259c0,0.497,0.048,0.87,0.144,1.121c0.137,0.351,0.332,0.619,0.584,0.803c0.254,0.186,0.535,0.277,0.845,0.277
			c0.405,0,0.809-0.143,1.21-0.428c0.401-0.284,0.726-0.726,0.975-1.322c0.248-0.597,0.372-1.167,0.372-1.709
			c0-0.597-0.165-1.072-0.495-1.426c-0.331-0.353-0.74-0.529-1.228-0.529c-0.301,0-0.593,0.081-0.875,0.242
			c-0.282,0.162-0.546,0.408-0.79,0.738c-0.243,0.331-0.428,0.727-0.553,1.187C286.752,91.673,286.689,92.021,286.689,92.259z"/>
		<path d="M298.331,93.004l1.203,0.123c-0.173,0.597-0.57,1.164-1.193,1.702c-0.621,0.538-1.363,0.807-2.225,0.807
			c-0.538,0-1.031-0.124-1.48-0.373c-0.448-0.248-0.79-0.609-1.025-1.083c-0.234-0.474-0.352-1.014-0.352-1.62
			c0-0.793,0.184-1.563,0.551-2.307c0.366-0.746,0.842-1.299,1.425-1.662c0.583-0.361,1.215-0.543,1.894-0.543
			c0.866,0,1.558,0.269,2.074,0.807c0.518,0.538,0.776,1.271,0.776,2.201c0,0.355-0.032,0.72-0.096,1.094h-5.346
			c-0.019,0.142-0.027,0.269-0.027,0.383c0,0.679,0.156,1.197,0.468,1.555c0.313,0.358,0.694,0.537,1.146,0.537
			c0.424,0,0.841-0.139,1.251-0.417S298.104,93.528,298.331,93.004z M294.735,91.206h4.074c0.005-0.128,0.007-0.219,0.007-0.273
			c0-0.62-0.155-1.095-0.465-1.426c-0.31-0.33-0.709-0.495-1.196-0.495c-0.528,0-1.011,0.183-1.445,0.547
			C295.274,89.923,294.949,90.473,294.735,91.206z"/>
	</g>
	<g>
		<path d="M393.178,95.472l1.518-7.26h1.237l-0.253,1.196c0.46-0.515,0.872-0.87,1.233-1.066c0.363-0.196,0.756-0.294,1.18-0.294
			c0.451,0,0.828,0.119,1.131,0.359c0.304,0.238,0.503,0.572,0.599,1.001c0.369-0.456,0.758-0.796,1.165-1.022
			c0.408-0.225,0.838-0.338,1.289-0.338c0.606,0,1.061,0.144,1.363,0.431c0.304,0.287,0.455,0.69,0.455,1.21
			c0,0.224-0.053,0.593-0.157,1.107l-0.978,4.676h-1.237l0.998-4.799c0.087-0.392,0.13-0.672,0.13-0.841
			c0-0.237-0.075-0.424-0.226-0.561s-0.362-0.205-0.636-0.205c-0.369,0-0.745,0.111-1.128,0.335s-0.681,0.516-0.892,0.879
			c-0.213,0.361-0.398,0.919-0.558,1.671l-0.738,3.521h-1.237l1.025-4.901c0.073-0.333,0.109-0.569,0.109-0.711
			c0-0.237-0.074-0.429-0.223-0.574c-0.147-0.146-0.34-0.219-0.577-0.219c-0.351,0-0.719,0.111-1.104,0.335
			c-0.385,0.224-0.698,0.534-0.939,0.934c-0.241,0.398-0.439,0.967-0.595,1.705l-0.718,3.432H393.178z"/>
		<path d="M404.799,95.472l1.518-7.26h1.237l-1.518,7.26H404.799z M406.604,86.852l0.294-1.401h1.23l-0.294,1.401H406.604z"/>
		<path d="M408.073,92.99l1.237-0.075c0,0.355,0.055,0.658,0.164,0.909s0.312,0.456,0.604,0.615
			c0.295,0.159,0.638,0.239,1.029,0.239c0.547,0,0.957-0.109,1.23-0.328s0.41-0.477,0.41-0.772c0-0.214-0.082-0.417-0.246-0.608
			c-0.169-0.191-0.58-0.428-1.234-0.707c-0.653-0.281-1.071-0.478-1.254-0.592c-0.306-0.187-0.535-0.406-0.69-0.66
			c-0.155-0.252-0.232-0.543-0.232-0.871c0-0.574,0.228-1.066,0.684-1.477s1.094-0.615,1.914-0.615c0.911,0,1.605,0.211,2.081,0.633
			c0.477,0.421,0.724,0.976,0.742,1.664l-1.21,0.082c-0.019-0.438-0.173-0.784-0.465-1.039s-0.704-0.383-1.237-0.383
			c-0.429,0-0.761,0.098-0.998,0.294s-0.355,0.408-0.355,0.636s0.103,0.429,0.308,0.602c0.137,0.118,0.49,0.301,1.06,0.547
			c0.948,0.41,1.545,0.733,1.791,0.971c0.392,0.378,0.588,0.839,0.588,1.381c0,0.36-0.11,0.713-0.332,1.06
			c-0.221,0.347-0.558,0.623-1.012,0.831c-0.453,0.207-0.987,0.311-1.603,0.311c-0.839,0-1.552-0.207-2.14-0.622
			S408.041,93.925,408.073,92.99z"/>
		<path d="M414.95,95.472l1.518-7.26h1.237l-0.253,1.196c0.46-0.515,0.871-0.87,1.234-1.066c0.361-0.196,0.755-0.294,1.179-0.294
			c0.451,0,0.828,0.119,1.132,0.359c0.303,0.238,0.502,0.572,0.598,1.001c0.369-0.456,0.758-0.796,1.166-1.022
			c0.407-0.225,0.837-0.338,1.288-0.338c0.606,0,1.061,0.144,1.364,0.431c0.303,0.287,0.454,0.69,0.454,1.21
			c0,0.224-0.053,0.593-0.157,1.107l-0.978,4.676h-1.237l0.998-4.799c0.087-0.392,0.13-0.672,0.13-0.841
			c0-0.237-0.075-0.424-0.226-0.561s-0.362-0.205-0.636-0.205c-0.369,0-0.745,0.111-1.128,0.335s-0.68,0.516-0.893,0.879
			c-0.211,0.361-0.397,0.919-0.557,1.671l-0.738,3.521h-1.237l1.025-4.901c0.073-0.333,0.109-0.569,0.109-0.711
			c0-0.237-0.074-0.429-0.222-0.574c-0.148-0.146-0.341-0.219-0.578-0.219c-0.351,0-0.719,0.111-1.104,0.335
			c-0.386,0.224-0.699,0.534-0.94,0.934c-0.241,0.398-0.439,0.967-0.595,1.705l-0.718,3.432H414.95z"/>
		<path d="M431.514,94.569c-0.429,0.369-0.841,0.639-1.237,0.811c-0.396,0.17-0.82,0.256-1.271,0.256c-0.67,0-1.21-0.197-1.62-0.592
			c-0.41-0.394-0.615-0.898-0.615-1.514c0-0.405,0.093-0.765,0.276-1.076c0.186-0.313,0.43-0.563,0.735-0.752
			c0.306-0.189,0.679-0.325,1.121-0.407c0.278-0.055,0.806-0.098,1.583-0.13c0.776-0.032,1.334-0.114,1.671-0.246
			c0.096-0.337,0.144-0.617,0.144-0.841c0-0.287-0.104-0.513-0.314-0.677c-0.287-0.228-0.706-0.342-1.258-0.342
			c-0.52,0-0.944,0.115-1.275,0.346c-0.33,0.229-0.57,0.557-0.721,0.98l-1.251-0.109c0.255-0.72,0.659-1.271,1.214-1.654
			c0.553-0.383,1.252-0.574,2.095-0.574c0.897,0,1.608,0.214,2.133,0.643c0.401,0.319,0.602,0.733,0.602,1.244
			c0,0.388-0.057,0.836-0.171,1.347l-0.403,1.805c-0.128,0.574-0.191,1.041-0.191,1.401c0,0.228,0.05,0.556,0.15,0.984h-1.251
			C431.589,95.234,431.541,94.934,431.514,94.569z M431.972,91.794c-0.173,0.068-0.359,0.121-0.557,0.157
			c-0.199,0.036-0.53,0.075-0.995,0.116c-0.72,0.063-1.229,0.145-1.524,0.242c-0.296,0.099-0.52,0.255-0.67,0.469
			S428,93.229,428,93.489c0,0.347,0.12,0.631,0.358,0.854c0.24,0.224,0.58,0.335,1.022,0.335c0.41,0,0.805-0.108,1.183-0.324
			c0.378-0.217,0.677-0.519,0.896-0.906S431.849,92.51,431.972,91.794z"/>
		<path d="M437.297,94.467l-0.205,1.012c-0.296,0.077-0.583,0.116-0.861,0.116c-0.492,0-0.884-0.121-1.176-0.362
			c-0.219-0.183-0.328-0.431-0.328-0.745c0-0.159,0.06-0.526,0.178-1.101l0.882-4.218h-0.978l0.198-0.957h0.978l0.376-1.784
			l1.415-0.854l-0.554,2.639h1.217l-0.205,0.957h-1.21l-0.841,4.013c-0.104,0.511-0.157,0.815-0.157,0.916
			c0,0.146,0.042,0.258,0.126,0.335c0.085,0.077,0.223,0.116,0.414,0.116C436.839,94.549,437.083,94.521,437.297,94.467z"/>
		<path d="M443.306,92.826l1.237,0.13c-0.31,0.907-0.751,1.58-1.323,2.02c-0.571,0.44-1.222,0.66-1.951,0.66
			c-0.788,0-1.428-0.255-1.918-0.766c-0.489-0.511-0.734-1.224-0.734-2.14c0-0.793,0.157-1.572,0.472-2.338s0.765-1.348,1.351-1.747
			c0.585-0.398,1.254-0.598,2.006-0.598c0.779,0,1.396,0.22,1.853,0.66c0.456,0.439,0.684,1.021,0.684,1.746l-1.217,0.082
			c-0.005-0.46-0.138-0.82-0.399-1.08c-0.263-0.26-0.607-0.39-1.036-0.39c-0.497,0-0.928,0.157-1.292,0.472s-0.65,0.792-0.857,1.432
			c-0.208,0.641-0.312,1.257-0.312,1.85c0,0.62,0.137,1.085,0.41,1.395s0.61,0.465,1.012,0.465s0.785-0.152,1.151-0.458
			C442.808,93.915,443.096,93.45,443.306,92.826z"/>
		<path d="M445.295,95.472l2.092-10.021h1.237l-0.8,3.849c0.46-0.446,0.889-0.767,1.285-0.96c0.396-0.194,0.805-0.291,1.224-0.291
			c0.602,0,1.068,0.158,1.401,0.475c0.333,0.317,0.499,0.735,0.499,1.255c0,0.255-0.073,0.725-0.219,1.408l-0.896,4.286h-1.237
			l0.923-4.396c0.132-0.638,0.198-1.039,0.198-1.203c0-0.237-0.082-0.431-0.246-0.581s-0.401-0.226-0.711-0.226
			c-0.446,0-0.873,0.117-1.278,0.353c-0.405,0.234-0.724,0.556-0.954,0.963c-0.229,0.408-0.44,1.065-0.632,1.973l-0.649,3.117
			H445.295z"/>
	</g>
</g>
</svg>
